<svg width="44" height="40" viewBox="0 0 44 40" fill="none" xmlns="http://www.w3.org/2000/svg">
<path d="M43.5 20.1217C43.5 29.6987 35.963 37.7215 25.9375 39.4158V26.4383H30.5631H30.9863L31.0563 26.0211L32.0321 20.2044L32.1298 19.6217H31.5389H25.9375V16.3448C25.9375 15.6324 26.1282 14.9863 26.5686 14.5205C27.0031 14.0608 27.7511 13.7024 29.0223 13.7024H31.7971H32.2971V13.2024V8.25314V7.82509L31.8742 7.75912L31.7971 8.25314C31.8742 7.75912 31.8741 7.75911 31.8741 7.7591L31.8739 7.75908L31.8734 7.759L31.8718 7.75875L31.8657 7.75781L31.843 7.75435L31.7565 7.74152C31.6812 7.73053 31.5716 7.71493 31.4328 7.69625C31.1552 7.65891 30.7605 7.60922 30.2898 7.55956C29.3505 7.46043 28.1 7.36045 26.8719 7.36045C24.2693 7.36045 22.059 8.08211 20.4944 9.5147C18.9235 10.953 18.0625 13.054 18.0625 15.6884V19.6217H12.9738H12.4738V20.1217V25.9383V26.4383H12.9738H18.0625V39.4158C8.03696 37.7215 0.5 29.6987 0.5 20.1217C0.5 9.32329 10.08 0.5 22 0.5C33.92 0.5 43.5 9.32329 43.5 20.1217Z" fill="#FFFAFA" stroke="white"/>
</svg>
