<svg width="23" height="33" viewBox="0 0 23 33" fill="none" xmlns="http://www.w3.org/2000/svg">
<path d="M1.2666 28.2254V4.89209C1.2666 3.05114 2.4232 1.55875 3.84994 1.55875H21.1583C21.5863 1.55875 21.9333 2.00647 21.9333 2.55875V24.4159" stroke="white" stroke-width="2" stroke-linecap="round"/>
<path d="M16.7666 11.1917C16.7666 12.194 16.4598 13.1568 15.9119 13.8689C14.6507 15.5089 13.4276 17.2189 12.1193 18.7992C11.8195 19.1562 11.3438 19.1432 11.0567 18.7701L7.28767 13.8689C6.14842 12.3875 6.14842 9.99583 7.28767 8.5144C8.43813 7.0184 10.3124 7.0184 11.4627 8.5144L11.5998 8.69253L11.7367 8.5145C12.2884 7.79685 13.0396 7.39208 13.8243 7.39208C14.6091 7.39208 15.3603 7.79681 15.9119 8.5144C16.4598 9.22663 16.7666 10.1893 16.7666 11.1917Z" stroke="white" stroke-width="2" stroke-linejoin="round"/>
<path d="M3.84998 24.8921H21.9333" stroke="white" stroke-width="2" stroke-linecap="round"/>
<path d="M3.84998 31.5587H21.9333" stroke="white" stroke-width="2" stroke-linecap="round"/>
<path d="M3.84994 31.5588C2.4232 31.5588 1.2666 30.0664 1.2666 28.2254C1.2666 26.3844 2.4232 24.8921 3.84994 24.8921" stroke="white" stroke-width="2" stroke-linecap="round" stroke-linejoin="round"/>
</svg>
